<?xml version="1.0" encoding="UTF-8" standalone="no"?>
<svg
   version="1.1"
   viewBox="-10 0 266 256"
   id="svg1173"
   xmlns="http://www.w3.org/2000/svg"
   xmlns:svg="http://www.w3.org/2000/svg">
  <defs
     id="defs1177" />
  <path
     fill="currentColor"
     d="M189 39q11 0 20 16q1 4 0 5t-3 0q-8 -2 -16 -1q-3 0 -9 1h-9q-4 0 -5 -1q0 -1 4 -2q16 -4 22 -8q3 -1 3 -3q-1 -3 -4 -4q-47 -5 -95 7q-12 5 -25 4q-2 0 -2 -1t2 -2q7 -1 21 -4l12 -3q2 0 6 -1q3 0 6 -1q-3 -2 -5 -7q-1 -2 -1 -3q-2 -2 2 -5q10 -12 -6 -25q-4 -2 1 -2 q20 7 24 18q11 -2 22 -7q4 -2 4 -6q1 -2 3 -1q2 4 12 3q3 0 2 3q0 5 -3 4q-14 2 -30 9q-4 1 0 -2q3 -1 2 -2l-3 1q-2 0 -4 1q-4 0 -5 -1q-3 11 -3 20q27 -3 60 0zM120 205l-9 3q-3 1 -8 -1q-1 0 0 4q1 3 1 4q-1 5 -6 1q-3 -5 -6 -12q-1 -5 6 -6q2 -40 -1 -61q-1 -4 2 -1 q7 11 5 11q-3 23 -1 58q6 -1 15 -2l-2 -1q-1 -1 -1 -3q-1 -2 1 -1q2 3 5 4q14 -3 23 -3q1 2 0 4q-1 0 -2 1h-5q-8 0 -13 1q7 7 19 17q2 2 3 1q1 0 1 -3q-2 -45 -1 -89q-1 -9 -12 -9q-6 0 -14 4q-1 1 -2 1q-9 3 -16 2q-4 -1 1 -2q7 -1 16 -5q6 -2 15 -4q8 1 13 4q6 9 12 12 q3 2 0 4q-8 3 -8 17q-2 16 -1 35q0 16 4 42q0 3 -3 4q-2 0 -5 -2q-16 -16 -26 -29zM115 80q0 -3 1 -3t3 2q5 9 2 14q-37 55 -88 91q-9 5 -1 -2q70 -61 83 -102zM123 95q10 -3 16 5q16 23 42 43q5 6 19 5q20 0 42 10q2 2 3 4q-1 1 -3 0q-14 -5 -47 -8q-9 1 -17 -8 q-24 -20 -43 -43q-6 -7 -12 -5q-3 0 0 -3zM95 65q-3 0 -3 -1q1 -1 4 -2q18 -1 32 -10q6 -3 15 -1q2 1 2 2q0 2 -2 3q-30 13 -48 9zM160 66q3 -5 12 6q1 2 0 3t-3 0q-3 0 -13 5q-11 6 -19 7q-5 2 -1 -2q14 -7 24 -19zM106 76q5 -1 2 1q-13 7 -21 14q-5 4 -3 8q-2 6 -6 2 q-6 -5 -6 -14q1 -4 5 -2q0 3 6 0q6 -2 18 -7q3 -1 5 -2zM63 55q3 -2 1 1q-9 13 -6 17q4 6 2 10q-4 3 -7 0q-11 -14 10 -28zM106 180q5 0 11 -5q2 0 4 -2q4 -3 10 -3q4 2 1 6q-10 5 -19 14q-4 3 0 -1q2 -3 7 -8q1 -2 -1 -1q-1 1 -2 1q-6 1 -11 0q-2 0 0 -1zM108 153 q5 0 12 -5q2 -1 3 -2q4 -2 10 -2q3 2 1 5q-7 3 -19 15q-4 2 -1 -1q3 -4 7 -8q2 -2 0 -2q-9 3 -13 2q-3 -1 0 -2z"
     id="path1171"
     style="fill:none;stroke:#000000;stroke-opacity:1" />
  <path
     style="fill:none;stroke:#000000;stroke-width:1px;stroke-linecap:butt;stroke-linejoin:miter;stroke-opacity:1"
     d="M 108.46154,0.61538462 122.61538,15.076923 123.53846,40"
     id="path1364" />
  <path
     style="fill:none;stroke:#000000;stroke-width:1px;stroke-linecap:butt;stroke-linejoin:miter;stroke-opacity:1"
     d="M 128.46154,17.230769 170.61538,9.8461538"
     id="path1366" />
  <path
     style="fill:none;stroke:#000000;stroke-width:1px;stroke-linecap:butt;stroke-linejoin:miter;stroke-opacity:1"
     d="m 59.846154,55.692308 -7.076923,17.230769 2.461538,9.538461"
     id="path1368" />
  <path
     style="fill:none;stroke:#000000;stroke-width:1px;stroke-linecap:butt;stroke-linejoin:miter;stroke-opacity:1"
     d="m 71.538462,51.076923 74.769228,-11.692308 46.76923,1.23077 11.69231,14.461538 -32,3.692308"
     id="path1370" />
  <path
     style="fill:none;stroke:#000000;stroke-width:1px;stroke-linecap:butt;stroke-linejoin:miter;stroke-opacity:1"
     d="M 95.23077,64.307692 142,52.923077"
     id="path1372" />
  <path
     style="fill:none;stroke:#000000;stroke-width:1px;stroke-linecap:butt;stroke-linejoin:miter;stroke-opacity:1"
     d="M 106.92308,76.615385 76.769231,95.076923"
     id="path1374" />
  <path
     style="fill:none;stroke:#000000;stroke-width:1px;stroke-linecap:butt;stroke-linejoin:miter;stroke-opacity:1"
     d="M 138.61538,85.230769 167.23077,70.769231"
     id="path1376" />
  <path
     style="fill:none;stroke:#000000;stroke-width:1px;stroke-linecap:butt;stroke-linejoin:miter;stroke-opacity:1"
     d="M 117.07692,83.384615 90,130.15385 31.846154,183.07692"
     id="path1378" />
  <path
     style="fill:none;stroke:#000000;stroke-width:1px;stroke-linecap:butt;stroke-linejoin:miter;stroke-opacity:1"
     d="m 126,95.692308 13.84615,8.923072 45.53847,44.61539 55.38461,9.84615"
     id="path1380" />
  <path
     style="fill:none;stroke:#000000;stroke-width:1px;stroke-linecap:butt;stroke-linejoin:miter;stroke-opacity:1"
     d="m 99.53846,141.53846 0.61539,72.30769"
     id="path1382" />
  <path
     style="fill:none;stroke:#000000;stroke-width:1px;stroke-linecap:butt;stroke-linejoin:miter;stroke-opacity:1"
     d="m 103.53846,128.61538 30.15385,-9.23076 12.61538,4.30769 4,105.53846 -34.46154,-29.84615"
     id="path1384" />
  <path
     style="fill:none;stroke:#000000;stroke-width:1px;stroke-linecap:butt;stroke-linejoin:miter;stroke-opacity:1"
     d="m 107.53846,154.76923 24,-8.92308 L 121.69231,156"
     id="path1386" />
  <path
     style="fill:none;stroke:#000000;stroke-width:1px;stroke-linecap:butt;stroke-linejoin:miter;stroke-opacity:1"
     d="M 108.15385,178.46154 129.07692,172.61538 118,184.30769"
     id="path1388" />
  <path
     style="fill:none;stroke:#000000;stroke-width:1px;stroke-linecap:butt;stroke-linejoin:miter;stroke-opacity:1"
     d="m 105.07692,206.15385 34.15385,-4.61539"
     id="path1390" />
</svg>
