<?xml version="1.0" encoding="UTF-8" standalone="no"?>
<svg
   version="1.1"
   viewBox="-10 0 272 256"
   id="svg35"
   xmlns="http://www.w3.org/2000/svg"
   xmlns:svg="http://www.w3.org/2000/svg">
  <defs
     id="defs39" />
  <path
     fill="currentColor"
     d="M136 -8q9 8 8 11q-3 16 -2 30q2 -1 5 -2q3 0 6 -2q2 0 4 -2q-1 -2 6 -2q8 2 12 4q1 2 1 3t-2 1q-17 2 -32 11q0 4 -1 11v7q18 -4 33 -5q12 -3 24 19q3 8 -1 8q-5 2 -8 7q-8 15 -26 23q-14 7 -22 -1q0 1 -1 4q-1 4 0 4q10 19 45 47q7 7 16 6q27 2 48 13q3 2 3 3t-3 1 q-12 -2 -24 -3t-21 -2q-14 0 -20 -8q-32 -30 -44 -47q-1 70 4 96q-2 6 -7 3q-10 -18 -13 -28q-1 -3 0 -3t4 2q7 9 9 3q0 -6 -1 -26q-1 -23 -1 -50q-37 54 -70 55q-3 1 -3 0q0 -2 3 -3q36 -10 67 -60l-6 -8q-2 1 -15 6q-7 3 -4 -8q-13 -4 -9 -12q3 -2 0 -5q-12 -14 3 -25 q4 -2 2 2q-7 9 -5 9q2 2 2 5q-1 4 4 8q5 0 31 -10v-13q-5 2 -12 5q-14 5 -20 5q-5 0 -1 -2q12 -6 33 -14v-16q-16 11 -18 12q-5 2 -1 -2q1 -1 8 -7q8 -6 11 -9v-1q-22 8 -42 4q-4 -1 1 -2q18 0 41 -8q0 -22 -1 -27v-13q-2 -5 2 -2zM141 67v12q5 -2 10 -2q2 0 2 2q-1 3 -3 4 q-6 2 -9 5v12q11 -4 20 -5q3 4 -2 6q-8 2 -18 5q4 8 17 1q14 -6 25 -36q2 -9 -6 -11q-18 2 -36 7zM134 88q-3 1 -7 2q-18 6 -23 3q6 12 16 14q1 -1 15 -6v-9q-4 3 -5 2q0 -1 4 -6zM135 108q-2 2 -3 1q0 1 1 2q1 2 2 2v-5zM70 32q1 2 4 3q2 2 4 3q3 5 -1 7q-7 3 -10 9 q-4 10 0 19q6 12 10 22q0 3 -1 5q-2 1 -4 -1q-9 -7 -22 -13q-10 61 -5 105q2 14 15 25q3 3 0 7q-10 3 -16 -11q-2 -3 -2 -2l-10 -10q-6 -3 -2 -9q4 -4 8 -1q2 2 2 -2q-1 -32 -1 -54q1 -24 5 -51q1 -4 -2 -6q-3 -4 0 -8q5 -2 6 -1q10 7 6 9q-3 2 -4 7q1 1 5 1q7 0 9 -1 q2 0 2 -1q1 -1 0 -3q-7 -10 -6 -33q-19 14 -30 4q-2 -1 -2 -2t3 -1q11 3 25 -6q5 -3 6 -8q1 -6 8 -2z"
     id="path33"
     style="fill:none;fill-opacity:1;stroke:#000000;stroke-opacity:1" />
  <path
     style="fill:none;stroke:#000000;stroke-width:1px;stroke-linecap:butt;stroke-linejoin:miter;stroke-opacity:1"
     d="M 30.187886,49.048208 50.756489,48.731768 67.211372,41.137206 62.464771,65.50309 72.590853,94.299135 49.807169,84.173053"
     id="path1142" />
  <path
     style="fill:none;stroke:#000000;stroke-width:1px;stroke-linecap:butt;stroke-linejoin:miter;stroke-opacity:1"
     d="M 44.111248,74.996292 41.896168,198.40791 55.81953,219.60939"
     id="path1146" />
  <path
     style="fill:none;stroke:#000000;stroke-width:1px;stroke-linecap:butt;stroke-linejoin:miter;stroke-opacity:1"
     d="M 94.10878,43.035847 165.30779,30.378245 117.84178,56.009889"
     id="path1148" />
  <path
     style="fill:none;stroke:#000000;stroke-width:1px;stroke-linecap:butt;stroke-linejoin:miter;stroke-opacity:1"
     d="m 97.27318,72.148331 -1.26576,12.974042 8.22744,11.391842 -2.21508,5.063045 9.80964,7.27812 -2.53152,5.06304 45.25093,-14.239804"
     id="path1150" />
  <path
     style="fill:none;stroke:#000000;stroke-width:1px;stroke-linecap:butt;stroke-linejoin:miter;stroke-opacity:1"
     d="m 104.5513,76.894932 51.89617,-15.505562 22.1508,-3.164401 15.50556,18.986403 c 0,0 -37.9728,36.390608 -39.555,35.757728 -1.5822,-0.63288 -15.18913,-4.43016 -15.18913,-4.43016"
     id="path1152" />
  <path
     style="fill:none;stroke:#000000;stroke-width:1px;stroke-linecap:butt;stroke-linejoin:miter;stroke-opacity:1"
     d="M 106.76638,91.767614 148.53646,80.059333"
     id="path1156" />
  <path
     style="fill:none;stroke:#000000;stroke-width:1px;stroke-linecap:butt;stroke-linejoin:miter;stroke-opacity:1"
     d="M 137.46106,-0.31644005 139.04326,223.72311 126.06922,202.52163"
     id="path1158" />
  <path
     style="fill:none;stroke:#000000;stroke-width:1px;stroke-linecap:butt;stroke-linejoin:miter;stroke-opacity:1"
     d="m 66.262052,181.32015 35.441288,-18.66996 32.90976,-41.13721 52.84549,53.47837 57.90853,12.02472"
     id="path1160" />
</svg>
